<svg id="Capa_1" enable-background="new 0 0 512 512" height="512" viewBox="0 0 512 512" width="512" xmlns="http://www.w3.org/2000/svg"><g><path d="m511.271 252.773c-44.413-93.17-144.612-153.373-255.271-153.373s-210.858 60.203-255.27 153.373c-.973 2.042-.973 4.413 0 6.455 44.412 93.17 144.611 153.372 255.27 153.372 41.525 0 81.477-8.194 118.742-24.356 3.8-1.648 5.545-6.065 3.897-9.865s-6.066-5.546-9.865-3.897c-35.372 15.339-73.314 23.118-112.774 23.118-103.621 0-197.462-55.458-240.161-141.6 42.699-86.142 136.54-141.6 240.161-141.6s197.462 55.458 240.161 141.6c-21.266 42.908-55.489 78.899-99.173 104.246-3.583 2.079-4.802 6.669-2.724 10.251 2.079 3.582 6.667 4.802 10.251 2.724 47.401-27.504 84.316-66.922 106.755-113.993.973-2.042.973-4.413.001-6.455z"/><path d="m163.82 185.228c-3.439-2.308-8.099-1.392-10.407 2.048-13.66 20.355-20.88 44.118-20.88 68.725 0 68.08 55.387 123.467 123.467 123.467s123.467-55.388 123.467-123.468-55.387-123.467-123.467-123.467c-30.233 0-59.325 11.04-81.916 31.088-3.099 2.749-3.382 7.489-.632 10.587 2.748 3.1 7.489 3.383 10.587.632 19.845-17.608 45.4-27.307 71.961-27.307 59.809 0 108.467 48.658 108.467 108.467s-48.658 108.467-108.467 108.467-108.467-48.658-108.467-108.467c0-21.618 6.34-42.492 18.335-60.365 2.309-3.44 1.392-8.099-2.048-10.407z"/><path d="m289.134 198.8c-4.719 0-9.122 1.371-12.841 3.727-6.463-2.461-13.265-3.727-20.293-3.727-31.54 0-57.2 25.66-57.2 57.2s25.66 57.2 57.2 57.2 57.2-25.66 57.2-57.2c0-7.029-1.266-13.831-3.727-20.293 2.357-3.719 3.727-8.122 3.727-12.841 0-13.27-10.796-24.066-24.066-24.066zm9.066 24.066c0 5-4.067 9.067-9.066 9.067-5 0-9.067-4.067-9.067-9.067 0-4.999 4.067-9.066 9.067-9.066 4.999 0 9.066 4.067 9.066 9.066zm-42.2 75.334c-23.27 0-42.2-18.931-42.2-42.2s18.931-42.2 42.2-42.2c3.543 0 7.004.443 10.362 1.292-.836 2.441-1.296 5.054-1.296 7.775 0 13.27 10.797 24.067 24.067 24.067 2.721 0 5.334-.46 7.775-1.296.848 3.358 1.292 6.819 1.292 10.363 0 23.269-18.93 42.199-42.2 42.199z"/></g></svg>